<?xml version="1.0" encoding="utf-8"?>
<!-- Generator: Adobe Illustrator 18.0.0, SVG Export Plug-In . SVG Version: 6.00 Build 0)  -->
<!DOCTYPE svg PUBLIC "-//W3C//DTD SVG 1.1//EN" "http://www.w3.org/Graphics/SVG/1.1/DTD/svg11.dtd">
<svg version="1.1" id="Layer_1" xmlns="http://www.w3.org/2000/svg" xmlns:xlink="http://www.w3.org/1999/xlink" x="0px" y="0px"
	 width="300px" height="300px" viewBox="0 0 300 300" style="enable-background:new 0 0 300 300;" xml:space="preserve">
<style type="text/css">
	.st0{fill:#9BDBDE;}
	.st1{fill:#E8F9F9;}
	.st2{fill:#AF322C;}
	.st3{fill:#E5B498;}
	.st4{fill:#212F3A;}
	.st5{fill:#FFEA5D;}
	.st6{opacity:0.51;fill:#FFD15F;}
	.st7{fill:#2D3F51;}
	.st8{opacity:0.23;fill:#212F3A;}
	.st9{fill:#D4E6F4;}
	.st10{opacity:0.21;fill:#2D3F51;}
	.st11{fill:#FFF1AE;}
	.st12{fill:#F3BE9E;}
	.st13{fill:#F5F4F4;}
	.st14{fill:#FF615F;}
	.st15{fill:#473F3F;}
	.st16{fill:#293947;}
	.st17{fill:#C1382C;}
	.st18{fill:#D83939;}
	.st19{opacity:0.44;fill:#FFF1AE;}
	.st20{opacity:0.2;fill:#9BDBDE;}
</style>
<g>
	<path class="st0" d="M92.3,74.7c20.1-7.3,54.4-41.9,75.7-41.3c32.4,1,64.3,41.1,90.7,78.6c44.8,63.7,60.7,91.4,8.8,133
		s-198.9,14.5-241-19.8C5.2,207.9-44.4,124.5,92.3,74.7z"/>
	<path class="st1" d="M29.6,227.6H286c0,0-21.1,41.5-100.8,38.5C185.2,266.1,90,273.7,29.6,227.6z"/>
	<g>
		<path class="st2" d="M158.4,98.1c0,0,3.1,19.9,7.3,23.7c5.9,5.2,31.1,4.8,31.1,4.8l0.4-6.1c0,0-16-4.3-19.1-8.5
			c-2.9-3.8-3-17.4-2.9-20.7c0-0.6,0-1.1-0.2-1.7c-0.7-2.8-2.6-5.3-5.4-6.4c-2.1-0.9-7.5-0.2-9,1.5C157.1,88.7,158,92.7,158.4,98.1z
			"/>
		<path class="st3" d="M197.2,120.4c0,0,4.9,0.2,6.1,0.9l-4.4,4.6h-2L197.2,120.4z"/>
		<path class="st4" d="M245.2,218.1c1.4,13.7-10,25-23.7,23.7c-10.1-1-18.3-9.2-19.3-19.3c-1.4-13.7,10-25,23.7-23.7
			C236,199.8,244.2,208,245.2,218.1z"/>
		<path class="st5" d="M236.7,218.6c1.1,8.6-6.1,15.8-14.7,14.7c-5.8-0.7-10.6-5.4-11.3-11.3c-1.1-8.6,6.1-15.8,14.7-14.7
			C231.3,208,236,212.7,236.7,218.6z"/>
		<path class="st6" d="M230.9,218.8c1,5.2-3.5,9.6-8.6,8.6c-2.9-0.5-5.2-2.9-5.8-5.8c-1-5.2,3.5-9.6,8.6-8.6
			C228.1,213.6,230.4,216,230.9,218.8z"/>
		<path class="st7" d="M150,154.7c0,0-37.1,49.5,13.7,41.9l14.9-0.1v16.8h-47.3l-71.5-1.1c-6-0.1-10.2-6-8.3-11.7
			C58.1,181.1,91.9,136.2,150,154.7z"/>
		<path class="st8" d="M109,151.7l31,20.4c0,0,2.8-6.2,10-17.4C150,154.7,127.9,147.8,109,151.7z"/>
		<path class="st9" d="M117.6,133.6c0,0-11.9,10.4,1.9,19.5c15.4,10.2,28.9,1.7,28.9,1.7L117.6,133.6z"/>
		<path class="st4" d="M118.8,130c0,0-11.9,10.4,1.9,19.5c15.4,10.2,28.9,1.7,28.9,1.7L118.8,130z"/>
		<path class="st9" d="M210.7,189.4c0,0,17.2-7.1,28.8,5.2c1.2,1.3,0.8,3.4-0.8,4.2L195.8,219c-2.2,1-4.8-0.6-4.7-3.1
			C191.4,209.2,194.3,197.4,210.7,189.4z"/>
		<path class="st7" d="M188.6,132.6c0,0-0.4-9.2,13.8-10.5l1.8,14.1h-4.1c-0.5,0-0.8,0.6-0.5,1.1c3.3,4,14.6,19.1,16.1,40.6
			c0.7,10.3-3.7,20.5-12,26.7c-5.5,4.1-13.5,7.6-25.1,8.9v-16.8c0,0,21.8-2.9,23-21.7c0.8-13.1-1.9-19.2-10.7-38.6L188.6,132.6z"/>
		<path class="st5" d="M202.4,122.1c0,0-1.3,7.4,1.8,14.1c0,0,4.4-0.4,3.6-7C207.8,129.1,206.9,121.3,202.4,122.1z"/>
		<path class="st4" d="M117.1,218.1c1.4,13.7-10,25-23.7,23.7c-10.1-1-18.3-9.2-19.3-19.3c-1.4-13.7,10-25,23.7-23.7
			C108,199.8,116.1,208,117.1,218.1z"/>
		<path class="st5" d="M108.6,218.6c1.1,8.6-6.1,15.8-14.7,14.7c-5.8-0.7-10.6-5.4-11.3-11.3c-1.1-8.6,6.1-15.8,14.7-14.7
			C103.2,208,107.9,212.7,108.6,218.6z"/>
		<path class="st8" d="M74.1,219.7c0,0,0.2,4.5,0.7,6.2l41.9-0.7c0,0,0.8-2.7,0.6-5.6L74.1,219.7z"/>
		<path class="st6" d="M102.9,218.8c1,5.2-3.5,9.6-8.6,8.6c-2.9-0.5-5.2-2.9-5.8-5.8c-1-5.2,3.5-9.6,8.6-8.6
			C100,213.6,102.3,216,102.9,218.8z"/>
		<path class="st9" d="M74.4,198.9c-3.8,3.1-7.1,6.6-10,10.5l-2.7,3.5c-2.4,2.5-0.6,6.6,2.8,6.7l47,0.7c6.1,0.1,11.9-2.3,16.3-6.5
			l0,0c1.7-1.7,2.7-3.9,2.9-6.3c0.4-7.1-1.8-24.4-21.5-21.9c-4.9,0.6-9.7,2.1-13.5,3C87.1,190.5,80.5,193.9,74.4,198.9z"/>
		<path class="st10" d="M220.3,187.4c0,0-2.7,19.8-28.9,25.9l0.8-4.5l22.5-20.6L220.3,187.4z"/>
		<path class="st10" d="M74.4,198.9c0,0,52.3-21.3,54.1,14.1l6.4-3.4l-7-24.2l-27-7.1l-22.5,13.9L74.4,198.9z"/>
		<path class="st8" d="M122.6,145.1l12.3,13c0,0,7.7,1.4,13.6-3.3C148.5,154.7,128,145.5,122.6,145.1z"/>
		<polygon class="st8" points="205.2,214.6 205.2,224.1 238.8,207.2 231.1,202.4 		"/>
		<path class="st9" d="M90.9,157.8l4.5,6.1c0.9,1.3,0.5,3.1-0.9,3.8c-4.9,2.5-15.5,8.7-24.2,19.6c-0.9,1.2-2.7,1.3-3.8,0.2l-4.9-4.9
			C61.6,182.5,70.6,166.9,90.9,157.8z"/>
		<path class="st11" d="M204.5,122.4c0,0-1.2,8.7,2.1,12.5c0,0,1.6-1.1,2.3-3.6c0.6-2.2,0.1-4.6-1.2-6.5
			C206.9,123.7,205.9,122.6,204.5,122.4z"/>
		<path class="st12" d="M170.4,46.1c-5.6,2.1-9.8,6.9-11.3,12.7c-1.5,5.8-2,13.4,4.1,17.7c10.7,7.7,20.1,6.7,25.9,1.3
			c5.7-5.4-2.5-13.5-2.4-16.7C186.7,58.4,183.8,41.2,170.4,46.1z"/>
		<path class="st13" d="M187.7,64.1c0,0,11.9,10,0.9,19.3s-27-2.9-29.5-12.2s-1.2-13.8,1.4-18.5s7.1-6,6.3-8.6s4.6-5.4,5.7-1.2
			s5.4,2,5.6,0c0.2-2.1,4.7-2.4,5,2.3c0.1,1.6,0.6,3.2,1.4,4.6c0.6,1.1,1.1,2.5,0.6,3.9c0,0,1.1,3.1-9.2,2.3c0,0-6.4-2-6.5,7.1
			c0,3.7,2.3,4.7,5.8,5.9C179.9,70.7,184.7,68.4,187.7,64.1z"/>
		<path class="st12" d="M166.3,65.9c-0.1-0.7-0.1-1.3-0.2-2c-0.1-2.1-0.9-6-4.8-3.9c-5.3,2.8,1.5,11.8,4.4,8.3
			C166.4,67.6,166.4,66.6,166.3,65.9z"/>
		<path class="st14" d="M186.8,59.6c2.3,1,7.6,3.8,5.4,7.6c0,0-2.1,2.8-5.2-3c-0.9-1.8-1.3-2.9-1.4-3.7
			C185.6,59.9,186.2,59.3,186.8,59.6z"/>
		
			<ellipse transform="matrix(0.999 -4.556900e-02 4.556900e-02 0.999 -2.5951 8.3696)" class="st15" cx="182.3" cy="61.1" rx="1.3" ry="1.9"/>
		<path class="st16" d="M157.2,128.6c0,0,26.5,17.2,32.4,25.6c4.9,7,11,32.3,11,32.3l-6.2,3.5c0,0-11.7-22.3-17.5-27.5
			c-7.1-6.4-34.5-17-34.5-17L157.2,128.6z"/>
		<path class="st17" d="M122.4,119.6c-1.5-1.3-2.1-3.4-1.5-5.4c2.9-9.9,14.2-41.6,37.8-41.9c19.5-0.2,17.9,14.4,15.1,23.2
			c-1.6,5.2-2.4,10.6-2.5,16c-0.1,5.8-0.5,13-1.9,18.3c-0.9,3.3-4.3,5.4-7.7,4.7C152.2,132.7,131.6,127.7,122.4,119.6z"/>
		<path class="st7" d="M120.8,116.9c0,0-14.9,26.6,17,32.6c6.7,1.3,13.1,3.5,19,6.9c3.7,2.2,7.1,4.6,8.4,6.6
			c4.6,7.6,4.7,35.5,4.7,35.5h9.3c0,0,3.1-32.9,0-43.2c-1.8-5.9-13.5-21.2-13.5-21.2S136,130.8,120.8,116.9z"/>
		<path class="st18" d="M169.9,198.5v3.3c0,1.6,1.3,3,3,3h12.1c1.9,0,2.7-2.3,1.2-3.5c-1.4-1.1-3.5-2.2-6.9-2.8H169.9z"/>
		<path class="st17" d="M194.4,190l1.3,2.3c0.6,1.1,2.1,1.5,3.2,0.9l8.4-4.8c1.3-0.7,0.9-2.7-0.5-2.9c-1.4-0.2-3.3-0.1-5.9,0.8
			L194.4,190z"/>
		<path class="st12" d="M188,126l7.1,1.4c1.5,0.3,2.9,1.1,3.8,2.2c1.2,1.5,1.8,3.6-2.2,5.1c-3.4,1.4-4.6,0.7-5-0.3
			c-0.5-1.4-1.6-2.3-3.1-2.3l-2.3,0L188,126z"/>
		<path class="st18" d="M148.2,91.2c0,0-1,23.8,3,29.1c5.6,7.4,35,12.7,35,12.7l1.9-7c0,0-17.5-8.6-20.2-14.2
			c-2.4-5,0.5-20.8,1.3-24.6c0.1-0.7,0.2-1.3,0.2-2c-0.2-3.4-1.9-6.7-4.8-8.6c-2.3-1.5-8.7-1.9-10.8-0.3
			C148.8,80,148.9,84.9,148.2,91.2z"/>
	</g>
	<path class="st19" d="M204.5,122.4l51.2-14.4c0,0,23,32.5,25.4,37.1l-74.5-10.2L204.5,122.4z"/>
	<path class="st1" d="M74.4,240.7c0,0,22.4,0.7,28.6-4.7c6.2-5.5,16-1.5,20.4,3.7C123.4,239.7,97.7,253.7,74.4,240.7z"/>
	<path class="st1" d="M200.5,239.8l22.9-7.6c6-2,12.5-1.9,18.4,0.4c3,1.2,5.8,3,7.8,5.6C249.6,238.2,223.9,256.3,200.5,239.8z"/>
	<path class="st1" d="M14.4,211.4c0,0,25.2-2.4,42.5,16.3H29.6C29.6,227.6,22.9,224.6,14.4,211.4z"/>
	<path class="st1" d="M253.3,227.6c0,0,14.8-20.1,42.7-15.2c0,0-2.6,6.7-10,15.2H253.3z"/>
	<path class="st1" d="M36.2,146.3c0.4,2.3-1.6,4.3-3.9,3.9c-1.3-0.2-2.3-1.3-2.6-2.6c-0.4-2.3,1.6-4.3,3.9-3.9
		C34.9,144,35.9,145.1,36.2,146.3z"/>
	<path class="st1" d="M74,107.3c0.4,2.3-1.6,4.3-3.9,3.9c-1.3-0.2-2.3-1.3-2.6-2.6c-0.4-2.3,1.6-4.3,3.9-3.9
		C72.7,104.9,73.8,106,74,107.3z"/>
	<path class="st1" d="M284.3,194.6c0.4,2.3-1.6,4.3-3.9,3.9c-1.3-0.2-2.3-1.3-2.6-2.6c-0.4-2.3,1.6-4.3,3.9-3.9
		C283,192.3,284,193.3,284.3,194.6z"/>
	<path class="st1" d="M219.6,91.6c0.4,2.3-1.6,4.3-3.9,3.9c-1.3-0.2-2.3-1.3-2.6-2.6c-0.4-2.3,1.6-4.3,3.9-3.9
		C218.3,89.2,219.4,90.3,219.6,91.6z"/>
	<path class="st1" d="M150.6,183.1c-1.4,0.5-2.7-0.8-2.2-2.2c0.2-0.4,0.5-0.8,0.9-0.9c1.4-0.5,2.7,0.8,2.2,2.2
		C151.4,182.6,151,182.9,150.6,183.1z"/>
	<path class="st1" d="M99.5,131.5c-1.4,0.5-2.7-0.8-2.2-2.2c0.2-0.4,0.5-0.8,0.9-0.9c1.4-0.5,2.7,0.8,2.2,2.2
		C100.3,131,100,131.4,99.5,131.5z"/>
	<path class="st1" d="M28.3,196.8c-1.4,0.5-2.7-0.8-2.2-2.2c0.2-0.4,0.5-0.8,0.9-0.9c1.4-0.5,2.7,0.8,2.2,2.2
		C29.1,196.3,28.8,196.7,28.3,196.8z"/>
	<path class="st1" d="M191.2,112.9c-1.4,0.5-2.7-0.8-2.2-2.2c0.2-0.4,0.5-0.8,0.9-0.9c1.4-0.5,2.7,0.8,2.2,2.2
		C192,112.4,191.6,112.8,191.2,112.9z"/>
	<path class="st1" d="M243.4,166.7c-1.4,0.5-2.7-0.8-2.2-2.2c0.2-0.4,0.5-0.8,0.9-0.9c1.4-0.5,2.7,0.8,2.2,2.2
		C244.2,166.2,243.8,166.5,243.4,166.7z"/>
	<path class="st1" d="M117.9,87c-1.4,0.5-2.7-0.8-2.2-2.2c0.2-0.4,0.5-0.8,0.9-0.9c1.4-0.5,2.7,0.8,2.2,2.2
		C118.6,86.5,118.3,86.9,117.9,87z"/>
	<path class="st20" d="M207.2,234.2l-38.5,0.6c-2,0-2.6,2.7-0.8,3.5c3.3,1.6,9.2,3.2,19.5,3.2c7.7,0,15.2-1.7,22.2-4.8l0,0
		L207.2,234.2z"/>
	<path class="st20" d="M80,235.2c0,0-10.6,2.9-18.8,1.7s-0.4,6.5,15.5,4.9l10.7-1.6C87.5,240.3,82.8,238.7,80,235.2z"/>
</g>
</svg>
