<?xml version="1.0" encoding="utf-8"?>
<!-- Generator: Adobe Illustrator 18.0.0, SVG Export Plug-In . SVG Version: 6.00 Build 0)  -->
<!DOCTYPE svg PUBLIC "-//W3C//DTD SVG 1.1//EN" "http://www.w3.org/Graphics/SVG/1.1/DTD/svg11.dtd">
<svg version="1.1" id="Layer_1" xmlns="http://www.w3.org/2000/svg" xmlns:xlink="http://www.w3.org/1999/xlink" x="0px" y="0px"
	 width="541px" height="559px" viewBox="0 0 541 559" style="enable-background:new 0 0 541 559;" xml:space="preserve">
<style type="text/css">
	.st0{fill:#7A8FFF;}
	.st1{fill:#E6E4F1;}
	.st2{fill:#BAD04C;}
	.st3{fill:#FF8A7E;}
	.st4{fill:#E8F1F8;}
	.st5{fill:#F7C463;}
	.st6{fill:#FFDA93;}
	.st7{fill:#FFFFFF;filter:url(#Adobe_OpacityMaskFilter);}
	.st8{mask:url(#mask8_2_);}
	.st9{fill:#EB7366;}
	.st10{fill:#505660;}
	.st11{fill:#6E49C8;}
	.st12{fill:#626D7D;}
	.st13{fill:#8760E7;}
	.st14{fill:#FFFFFF;filter:url(#Adobe_OpacityMaskFilter_1_);}
	.st15{mask:url(#mask9_2_);}
	.st16{opacity:0.3;fill:#5232A2;enable-background:new    ;}
	.st17{fill:#4B465A;}
	.st18{fill:#393448;}
	.st19{fill:#CDCEDB;}
	.st20{fill:#FFFFFF;filter:url(#Adobe_OpacityMaskFilter_2_);}
	.st21{mask:url(#mask10_2_);}
	.st22{fill:#B9BBCB;}
	.st23{fill:#E1E7EF;}
	.st24{fill:#FFFFFF;filter:url(#Adobe_OpacityMaskFilter_3_);}
	.st25{mask:url(#mask11_2_);}
	.st26{fill:#D4D5E2;}
	.st27{fill:#FFB9B8;}
	.st28{fill:#FFFFFF;filter:url(#Adobe_OpacityMaskFilter_4_);}
	.st29{mask:url(#mask12_2_);}
	.st30{fill:#F5877D;}
	.st31{fill:#FFCAC9;}
	.st32{fill:#FFFFFF;filter:url(#Adobe_OpacityMaskFilter_5_);}
	.st33{mask:url(#mask13_2_);}
	.st34{fill:#F1BFC0;}
	.st35{fill:#FFFFFF;filter:url(#Adobe_OpacityMaskFilter_6_);}
	.st36{mask:url(#mask14_2_);}
	.st37{fill:#E29D9D;}
	.st38{fill:#FFFFFF;filter:url(#Adobe_OpacityMaskFilter_7_);}
	.st39{mask:url(#mask15_2_);}
	.st40{fill:#D68989;}
	.st41{fill:#FFFFFF;filter:url(#Adobe_OpacityMaskFilter_8_);}
	.st42{mask:url(#mask16_2_);}
	.st43{fill:#CD8C8C;}
	.st44{fill:#FFFFFF;filter:url(#Adobe_OpacityMaskFilter_9_);}
	.st45{mask:url(#mask17_2_);}
	.st46{fill:#C07E7E;}
	.st47{fill:#FFFFFF;filter:url(#Adobe_OpacityMaskFilter_10_);}
	.st48{mask:url(#mask18_2_);}
	.st49{fill:#FFFFFF;filter:url(#Adobe_OpacityMaskFilter_11_);}
	.st50{mask:url(#mask19_2_);}
	.st51{fill:#F5F6F7;}
	.st52{fill:#FFFFFF;filter:url(#Adobe_OpacityMaskFilter_12_);}
	.st53{mask:url(#mask20_2_);}
	.st54{fill:#DFDCED;}
	.st55{fill:#D2CFE3;}
	.st56{fill:#ACA5BF;}
</style>
<polygon class="st0" points="320.4,9.6 306.4,25.7 327.4,29.8 "/>
<circle class="st1" cx="264.5" cy="58.2" r="8.6"/>
<rect x="519.3" y="20.5" class="st0" width="12.5" height="12.5"/>
<rect x="447.4" y="80.4" transform="matrix(0.7071 0.7071 -0.7071 0.7071 195.9611 -296.1197)" class="st2" width="16.1" height="16.1"/>
<path class="st3" d="M400.9,17.6l14.6,3.9l-10.7,10.7L400.9,17.6 M397,13.7l6.4,23.9l17.5-17.5L397,13.7L397,13.7z"/>
<path class="st4" d="M528.6,111.9v9.8h-9.8v-9.8H528.6 M530.4,110.1h-13.5v13.5h13.5V110.1L530.4,110.1z"/>
<g>
	<path class="st5" d="M347.7,369.8c0,0,17.2,185,24,185c7.2,0-4.7-187.1-10-189C356.4,364,347.7,369.8,347.7,369.8z"/>
	<path class="st6" d="M400.7,369.8c0,0,47.2,185,54,185c7.2,0-34.7-187.1-40-189S400.7,369.8,400.7,369.8z"/>
	<defs>
		<filter id="Adobe_OpacityMaskFilter" filterUnits="userSpaceOnUse" x="395.7" y="362.8" width="30" height="33.4">
			<feColorMatrix  type="matrix" values="1 0 0 0 0  0 1 0 0 0  0 0 1 0 0  0 0 0 1 0"/>
		</filter>
	</defs>
	<mask maskUnits="userSpaceOnUse" x="395.7" y="362.8" width="30" height="33.4" id="mask8_2_">
		<path class="st7" d="M400.7,369.8c0,0,47.2,185,54,185c7.2,0-34.7-187.1-40-189S400.7,369.8,400.7,369.8z"/>
	</mask>
	<g class="st8">
		<path class="st5" d="M408.7,395.8c0.6-4.3,13-8.7,16-3c3,5.7-2-30-2-30l-27,2C395.7,364.8,408.1,400.1,408.7,395.8z"/>
	</g>
	<path class="st5" d="M298.8,370.2c0,0-57.1,184.6-63.9,184.6c-7.2,0,44.7-186.8,49.9-188.6S298.8,370.2,298.8,370.2z"/>
	<path class="st6" d="M359.7,370.2c0,0-17.2,184.6-23.9,184.6c-7.2,0,4.7-186.8,10-188.6C351,364.3,359.7,370.2,359.7,370.2z"/>
	<path class="st3" d="M388.7,203.9c6-11.1,28.5-28.8,57-22c26.3,6.3,35.8,17.6,25,67c-6.4,29.3-30.5,117.1-48,125
		c-25.7,11.5-149.8,14.3-159,0c-9.1-14.3,26.7-34.5,43-42C323,324.4,382.7,215,388.7,203.9z"/>
	<path class="st9" d="M459.7,210.9c2,26.7-25.5,127.2-53,145c-15.2,9.8-69,17.2-80,6c-11-11.2,39.8-125.2,49-136
		C384.9,215.1,458.6,196.2,459.7,210.9z"/>
	<path class="st10" d="M290.8,508.8c-1.3,3.4,3.9,43.8,8.3,44.1c4.5,0.4,4.2-39.1,3.7-45.1C301.7,496.6,292,505.4,290.8,508.8z"/>
	<path class="st11" d="M365.7,284.8c3.4,1.3,29.8,40.9,19,60c-17.9,31.6-127.1,17.9-144,17c32.6,15.4,41.6,111.3,55,143
		c0.7,1.7-2.9,4.5-4,2c-34.1-77.9-116.2-152.1-111-169.3c7.6-25.1,136-30.7,136-30.7C316.7,306.8,362.3,283.5,365.7,284.8z"/>
	<path class="st12" d="M292.8,507.8c-1.2,3.5,4.9,44.8,9.3,45.1c4.5,0.4,6.2-35.1,5.7-41.1C306.7,500.6,295.1,501.1,292.8,507.8z"/>
	<path class="st13" d="M375.7,284.8c3.4,1.3,29.8,40.9,19,60c-17.9,31.6-109,23.9-126,23c30,19.6,20.7,105.1,31,136
		c0.6,1.8-3,4.5-4,2c-43-108-75.9-148.6-72.6-161.5c6.3-25.6,93.6-37.5,93.6-37.5S372.3,283.5,375.7,284.8z"/>
	<defs>
		<filter id="Adobe_OpacityMaskFilter_1_" filterUnits="userSpaceOnUse" x="251.7" y="300.8" width="154.1" height="76.6">
			<feColorMatrix  type="matrix" values="1 0 0 0 0  0 1 0 0 0  0 0 1 0 0  0 0 0 1 0"/>
		</filter>
	</defs>
	<mask maskUnits="userSpaceOnUse" x="251.7" y="300.8" width="154.1" height="76.6" id="mask9_2_">
		<path class="st14" d="M375.7,284.8c3.4,1.3,29.8,40.9,19,60c-17.9,31.6-109,23.9-126,23c30,19.6,20.7,105.1,31,136
			c0.6,1.8-3,4.5-4,2c-43-108-75.9-148.6-72.6-161.5c6.3-25.6,93.6-37.5,93.6-37.5S372.3,283.5,375.7,284.8z"/>
	</mask>
	<g class="st15">
		<path class="st16" d="M254.8,320.8c3.9-1.2,82.1,22.7,69,47c-8.8,16.3,43,7,43,7l39-24l-1-44l-118-6l-35,11
			C251.8,311.8,250.9,322,254.8,320.8z"/>
	</g>
	<path class="st17" d="M363.7,57.9c0,0,21.6-8.6,36-1c6.7,3.5,7.7,15.2,5,21c-3.2,6.9,18.9,6.5,22,12c3.1,5.5-7.5,20.7-2,25
		c5.5,4.3,37.2-1,43,6c5.8,7-10.3,27.8-5,35c3.9,5.3,41.1,6.2,37,23c-11.9,48.3-113.5,69.9-125,53c-11.5-16.9-23-95-23-95l-31,71
		c0,0-40.1-11.9-39-28c0.5-8.3,12.8-18,11-22s-16.1-10.5-14-17c3.2-10.2,20.4-25.2,28-30c2.5-1.6-19.6,3.1-14-8c4.9-9.7,26-20,26-20
		s-6.5-2.5-4-12c2.5-9.5,31.7-27.5,48-21C366.5,51.4,363.7,57.9,363.7,57.9z"/>
	<path class="st17" d="M362.8,59.3L362.8,59.3c0.1,0.4,0.6,0.8,1.1,0.5c3.9-1.7,6.8-4.9,8.2-8.9c0.3-0.9-1.1-1.3-1.4-0.4
		c-1,2.8-2.9,5.1-5.3,6.8c2.4-2.9,3.3-7.9,3.8-11c0.1-0.9-1.3-1.4-1.4-0.4c-0.3,2-0.7,4-1.4,6c0,0.1-0.1,0.2-0.1,0.4v0v0
		c-0.7,2-1.8,4.9-3.8,5.7C361.5,58.2,361.9,59.6,362.8,59.3C362.8,59.3,362.8,59.3,362.8,59.3z M415.2,77.9c-3.2,2.7-9.1,6.1-12,1
		c-0.5-0.8,0.8-1.6,1.3-0.8c0,0,0,0.1,0.1,0.1c1.5,0.5,3.1,0.1,4-1.2c0.6-0.8,1.9,0,1.3,0.8c-0.8,1.1-2.1,1.9-3.4,2.1
		c2.5,0.8,5.8-1.5,7.6-3.1C414.9,76.2,416,77.2,415.2,77.9z M316.9,81.6c-3.5-0.1-6.4-2.7-7.1-6.1c-0.2-0.9-1.6-0.5-1.4,0.4
		c0.8,4.1,4.4,7.1,8.6,7.2C317.9,83.1,317.9,81.6,316.9,81.6z M297.5,114.5c5.2,0.4,9.1-2.9,12.8-6.2c0.7-0.7-0.3-1.7-1-1.1
		c-3.3,3-6.9,6.1-11.7,5.8C296.5,112.9,296.5,114.4,297.5,114.5z M318.4,85.1c-3.5,0.5-6.8-0.3-9.6-2.4c-0.8-0.6,0-1.9,0.8-1.3
		c2.5,1.9,5.4,2.7,8.5,2.2C318.9,83.5,319.3,85,318.4,85.1z"/>
	<path class="st18" d="M365.7,152.9c-0.8-4.4,12.8-35.9,19-37c-10.6-0.6-20.2-4.3-22-6c-1.9-1.7-4,5-4,5l-4,26l4,11
		C358.7,151.9,366.5,157.3,365.7,152.9z"/>
	<path class="st19" d="M316.7,152.9c-20.7,34.7-104.1,109.3-142,120c-2.5,0.7,0.9,5.5,3,5c30.3-6.8,113.7-32.6,141-86
		C322.3,184.9,319.2,148.8,316.7,152.9z"/>
	<defs>
		<filter id="Adobe_OpacityMaskFilter_2_" filterUnits="userSpaceOnUse" x="170.3" y="157.3" width="150.4" height="127.6">
			<feColorMatrix  type="matrix" values="1 0 0 0 0  0 1 0 0 0  0 0 1 0 0  0 0 0 1 0"/>
		</filter>
	</defs>
	<mask maskUnits="userSpaceOnUse" x="170.3" y="157.3" width="150.4" height="127.6" id="mask10_2_">
		<path class="st20" d="M316.7,152.9c-20.7,34.7-104.1,109.3-142,120c-2.5,0.7,0.9,5.5,3,5c30.3-6.8,113.7-32.6,141-86
			C322.3,184.9,319.2,148.8,316.7,152.9z"/>
	</mask>
	<g class="st21">
		<path class="st22" d="M171.8,275.9c18.5-4.1,136.9-48.5,146-118c0.5-3.5,3,9,3,9l-6,46l-76,63l-65,9
			C173.8,284.8,167.6,276.8,171.8,275.9z"/>
	</g>
	<path class="st23" d="M354.7,147.9c0,0,38,14.4,40,19c9.5,21.4-46,98-20,116c12.2,8.4-53.9,27.1-58,24c-4-3.1-4-61.2-1-79
		c-6.4-2.9-14-15.8-13-22c1-6.2,19.4-29.2,14-53C326.6,147.7,354.7,147.9,354.7,147.9z"/>
	<defs>
		<filter id="Adobe_OpacityMaskFilter_3_" filterUnits="userSpaceOnUse" x="299.1" y="204.8" width="82.1" height="79.1">
			<feColorMatrix  type="matrix" values="1 0 0 0 0  0 1 0 0 0  0 0 1 0 0  0 0 0 1 0"/>
		</filter>
	</defs>
	<mask maskUnits="userSpaceOnUse" x="299.1" y="204.8" width="82.1" height="79.1" id="mask11_2_">
		<path class="st24" d="M354.7,147.9c0,0,38,14.4,40,19c9.5,21.4-46,98-20,116c12.2,8.4-53.9,27.1-58,24c-4-3.1-4-61.2-1-79
			c-6.4-2.9-14-15.8-13-22c1-6.2,19.4-29.2,14-53C326.6,147.7,354.7,147.9,354.7,147.9z"/>
	</mask>
	<g class="st25">
		<path class="st26" d="M299.8,204.9c3.5,3.1,34.7,12.2,38,12c3.2-0.2,43-2,43-2s1.6,4.7-1,9c-4.4,7.2-51.5,36.9-53,54
			c-0.5,5.1-19,6-19,6S296.2,201.8,299.8,204.9z"/>
	</g>
	<path class="st27" d="M348.7,83.9c-13.2,2.2-21.2,39.1-10,42c5.1,1.3,10,0,10,0s-2.6,22.8-17,26c1.8,6.7,23,14.1,37,4
		c-10.7-9.2-7.2-31.3-6-36C363.9,115.2,380.1,78.7,348.7,83.9z"/>
	<defs>
		<filter id="Adobe_OpacityMaskFilter_4_" filterUnits="userSpaceOnUse" x="341.6" y="115.9" width="20.1" height="22">
			<feColorMatrix  type="matrix" values="1 0 0 0 0  0 1 0 0 0  0 0 1 0 0  0 0 0 1 0"/>
		</filter>
	</defs>
	<mask maskUnits="userSpaceOnUse" x="341.6" y="115.9" width="20.1" height="22" id="mask12_2_">
		<path class="st28" d="M348.7,83.9c-13.2,2.2-21.2,39.1-10,42c5.1,1.3,10,0,10,0s-2.6,22.8-17,26c1.8,6.7,23,14.1,37,4
			c-10.7-9.2-7.2-31.3-6-36C363.9,115.2,380.1,78.7,348.7,83.9z"/>
	</mask>
	<g class="st29">
		<path class="st30" d="M361.7,115.9c-2,2.9-11.2,9.4-13,10c-3.7,1.2-11.5,11.9-4,12C352.2,138,359.4,124,361.7,115.9z"/>
	</g>
	<path class="st31" d="M357.7,150.9c0,0,3-17.3,3-22c0-4.7-17.7-6.6-20-5c-2.3,1.6-4,7-4,7l6-2l8,3c0,0,1.3,16.7,2,20
		C353.4,155.2,357.7,150.9,357.7,150.9z"/>
	<path class="st19" d="M394.7,166.9c24.5,18.4-59.2,117.6-72,113c-15.5-5.6,25.7-111.7,30-128c0.8-2.9,3.9-2.1,5-1
		c1,1.1-2.7,41.6-5,60C360.5,192.9,385.9,160.3,394.7,166.9z"/>
	<defs>
		<filter id="Adobe_OpacityMaskFilter_5_" filterUnits="userSpaceOnUse" x="312.7" y="146.6" width="94" height="144.2">
			<feColorMatrix  type="matrix" values="1 0 0 0 0  0 1 0 0 0  0 0 1 0 0  0 0 0 1 0"/>
		</filter>
	</defs>
	<mask maskUnits="userSpaceOnUse" x="312.7" y="146.6" width="94" height="144.2" id="mask13_2_">
		<path class="st32" d="M394.7,166.9c24.5,18.4-59.2,117.6-72,113c-15.5-5.6,25.7-111.7,30-128c0.8-2.9,3.9-2.1,5-1
			c1,1.1-2.7,41.6-5,60C360.5,192.9,385.9,160.3,394.7,166.9z"/>
	</mask>
	<g class="st33">
		<path class="st19" d="M358.7,194.9c5.7,1.7,18.9,17.8,19,26c0.1,8.1,9,6,9,6l13-34l1-34h-16C384.7,158.9,353.1,193.2,358.7,194.9z
			"/>
		<path class="st22" d="M337.7,235.9c6.8-13.2,16-27,16-27l6-27v-35c0,0-3.7-1.5-4,3C354.4,166.8,345.4,210.3,337.7,235.9z
			 M327.7,266.9c13.8-2.8,69.5-74.1,72-98c0.6-5.9,7,1,7,1l-12,40l-30,60l-37,21l-15-14l9-32C321.7,244.9,320.3,268.3,327.7,266.9z"
			/>
	</g>
	<path class="st17" d="M354.7,73.9c0,0-3.2,3.9-5,12c-1.3,5.9,14.4,1.8,15,5c0.6,3.2-7.4,13.7-3,18c4.1,4,12.9,3.4,19,5
		c5.9,1.5,20,2,20,2l-23-28l-18-15L354.7,73.9z"/>
	<path class="st34" d="M423.6,291.8l48.2,261.9h10.8l-47-261.9H423.6z"/>
	<defs>
		<filter id="Adobe_OpacityMaskFilter_6_" filterUnits="userSpaceOnUse" x="424.7" y="287.8" width="21" height="18">
			<feColorMatrix  type="matrix" values="1 0 0 0 0  0 1 0 0 0  0 0 1 0 0  0 0 0 1 0"/>
		</filter>
	</defs>
	<mask maskUnits="userSpaceOnUse" x="424.7" y="287.8" width="21" height="18" id="mask14_2_">
		<path class="st35" d="M423.6,291.8l48.2,261.9h10.8l-47-261.9H423.6z"/>
	</mask>
	<g class="st36">
		<path class="st37" d="M424.7,287.8h21v18h-21V287.8z"/>
	</g>
	<path class="st37" d="M409.2,291.8l59,261.9l8.5,0l-48.8-261.9H409.2z"/>
	<defs>
		<filter id="Adobe_OpacityMaskFilter_7_" filterUnits="userSpaceOnUse" x="418.7" y="287.8" width="12" height="19">
			<feColorMatrix  type="matrix" values="1 0 0 0 0  0 1 0 0 0  0 0 1 0 0  0 0 0 1 0"/>
		</filter>
	</defs>
	<mask maskUnits="userSpaceOnUse" x="418.7" y="287.8" width="12" height="19" id="mask15_2_">
		<path class="st38" d="M409.2,291.8l59,261.9l8.5,0l-48.8-261.9H409.2z"/>
	</mask>
	<g class="st39">
		<path class="st40" d="M425.7,306.8l5-2l-2-17l-10,2L425.7,306.8z"/>
	</g>
	<path class="st34" d="M136.8,291.8L185,553.8h10.8l-47-261.9H136.8z"/>
	<path class="st37" d="M91,291.8L30.7,553.8H19.8l59.1-261.9H91z"/>
	<path class="st40" d="M77.8,303.8l5,5l5-18l-7-1L77.8,303.8z"/>
	<path class="st34" d="M81.3,291.8L21.8,553.8h-8l48.8-261.9H81.3z"/>
	<defs>
		<filter id="Adobe_OpacityMaskFilter_8_" filterUnits="userSpaceOnUse" x="45.8" y="281.8" width="56" height="23">
			<feColorMatrix  type="matrix" values="1 0 0 0 0  0 1 0 0 0  0 0 1 0 0  0 0 0 1 0"/>
		</filter>
	</defs>
	<mask maskUnits="userSpaceOnUse" x="45.8" y="281.8" width="56" height="23" id="mask16_2_">
		<path class="st41" d="M81.3,291.8L21.8,553.8h-8l48.8-261.9H81.3z"/>
	</mask>
	<g class="st42">
		<path class="st37" d="M45.8,281.8h56v23h-56V281.8z"/>
	</g>
	<path class="st37" d="M121.3,291.8l59.5,261.9h8L140,291.8H121.3z"/>
	<path class="st43" d="M422.9,291.8H84.8l-5,23h347.9L422.9,291.8z"/>
	<defs>
		<filter id="Adobe_OpacityMaskFilter_9_" filterUnits="userSpaceOnUse" x="81.8" y="287.8" width="347.9" height="19">
			<feColorMatrix  type="matrix" values="1 0 0 0 0  0 1 0 0 0  0 0 1 0 0  0 0 0 1 0"/>
		</filter>
	</defs>
	<mask maskUnits="userSpaceOnUse" x="81.8" y="287.8" width="347.9" height="19" id="mask17_2_">
		<path class="st44" d="M422.9,291.8H84.8l-5,23h347.9L422.9,291.8z"/>
	</mask>
	<g class="st45">
		<path class="st46" d="M81.8,287.8h347.9v19H81.8V287.8z"/>
	</g>
	<path class="st34" d="M368.2,291.8l-58.9,261.9h-8.5l48.8-261.9H368.2z"/>
	<defs>
		<filter id="Adobe_OpacityMaskFilter_10_" filterUnits="userSpaceOnUse" x="346.7" y="282.8" width="56" height="23">
			<feColorMatrix  type="matrix" values="1 0 0 0 0  0 1 0 0 0  0 0 1 0 0  0 0 0 1 0"/>
		</filter>
	</defs>
	<mask maskUnits="userSpaceOnUse" x="346.7" y="282.8" width="56" height="23" id="mask18_2_">
		<path class="st47" d="M368.2,291.8l-58.9,261.9h-8.5l48.8-261.9H368.2z"/>
	</mask>
	<g class="st48">
		<path class="st37" d="M346.7,282.8h56v23h-56V282.8z"/>
	</g>
	<path class="st37" d="M377.8,291.8l-60.3,261.9h-10.9l59.1-261.9H377.8z"/>
	<defs>
		<filter id="Adobe_OpacityMaskFilter_11_" filterUnits="userSpaceOnUse" x="346.7" y="282.8" width="56" height="23">
			<feColorMatrix  type="matrix" values="1 0 0 0 0  0 1 0 0 0  0 0 1 0 0  0 0 0 1 0"/>
		</filter>
	</defs>
	<mask maskUnits="userSpaceOnUse" x="346.7" y="282.8" width="56" height="23" id="mask19_2_">
		<path class="st49" d="M377.8,291.8l-60.3,261.9h-10.9l59.1-261.9H377.8z"/>
	</mask>
	<g class="st50">
		<path class="st40" d="M346.7,282.8h56v23h-56V282.8z"/>
	</g>
	<path class="st51" d="M16.8,280.8h457.9v11H16.8V280.8z"/>
	<path class="st1" d="M88.3,84.9h188c3.3,0,6.1,2.7,6.3,6l7.8,140c0.2,3.3-2.4,6-5.7,6h-188c-3.3,0-6.1-2.7-6.3-6l-7.8-140
		C82.5,87.6,85,84.9,88.3,84.9z"/>
	<defs>
		<filter id="Adobe_OpacityMaskFilter_12_" filterUnits="userSpaceOnUse" x="149.8" y="178.9" width="73" height="102">
			<feColorMatrix  type="matrix" values="1 0 0 0 0  0 1 0 0 0  0 0 1 0 0  0 0 0 1 0"/>
		</filter>
	</defs>
	<mask maskUnits="userSpaceOnUse" x="149.8" y="178.9" width="73" height="102" id="mask20_2_">
		<path class="st52" d="M88.3,84.9h188c3.3,0,6.1,2.7,6.3,6l7.8,140c0.2,3.3-2.4,6-5.7,6h-188c-3.3,0-6.1-2.7-6.3-6l-7.8-140
			C82.5,87.6,85,84.9,88.3,84.9z"/>
	</mask>
	<g class="st53">
		<path class="st54" d="M198.7,178.9h-43.8c-3.3,0-5.5,2.7-5,6l18,96h49.8c3.3,0,5.5-2.7,5-6l-17.1-90
			C205.1,181.6,202,178.9,198.7,178.9z"/>
	</g>
	<path class="st55" d="M199.8,178.9h-44c-3.3,0-6.4,2.7-7,6l-17.1,90c-0.6,3.3,1.7,6,5,6h23.1h26.9h40.1c2.2,0,4-1.8,4-4
		c0-2.2-1.8-4-4-4h-38.6l16.6-88C205.3,181.6,203.1,178.9,199.8,178.9z"/>
	<path class="st55" d="M241.8,272.9h93c2.2,0,4,1.8,4,4c0,2.2-1.8,4-4,4h-93c-2.2,0-4-1.8-4-4C237.8,274.6,239.6,272.9,241.8,272.9z
		"/>
	<path class="st56" d="M173.3,134.9c4.7,0,8.5,3.8,8.5,8.5c0,4.7-3.8,8.5-8.5,8.5c-4.7,0-8.5-3.8-8.5-8.5
		C164.8,138.7,168.6,134.9,173.3,134.9z"/>
</g>
</svg>
